<mxfile host="app.diagrams.net" modified="2021-06-01T03:51:11.145Z" agent="5.0 (Windows NT 10.0; Win64; x64) AppleWebKit/537.36 (KHTML, like Gecko) Chrome/90.0.4430.212 Safari/537.36" etag="8Ip2TRca2vYSu8mafLJK" version="14.7.3" type="github" pages="2">
  <diagram id="GIjGSdns0sLK4Gi6nQpD" name="Page-1">
    <mxGraphModel dx="1021" dy="529" grid="1" gridSize="10" guides="1" tooltips="1" connect="1" arrows="1" fold="1" page="1" pageScale="1" pageWidth="850" pageHeight="1100" math="0" shadow="0">
      <root>
        <mxCell id="0" />
        <mxCell id="1" parent="0" />
        <mxCell id="JbF6_Ax5CL-Pjxw5ouyr-1" value="Books" style="shape=table;startSize=30;container=1;collapsible=1;childLayout=tableLayout;fixedRows=1;rowLines=0;fontStyle=1;align=center;resizeLast=1;" vertex="1" parent="1">
          <mxGeometry x="390" y="300" width="180" height="160" as="geometry" />
        </mxCell>
        <mxCell id="JbF6_Ax5CL-Pjxw5ouyr-2" value="" style="shape=partialRectangle;collapsible=0;dropTarget=0;pointerEvents=0;fillColor=none;top=0;left=0;bottom=1;right=0;points=[[0,0.5],[1,0.5]];portConstraint=eastwest;" vertex="1" parent="JbF6_Ax5CL-Pjxw5ouyr-1">
          <mxGeometry y="30" width="180" height="30" as="geometry" />
        </mxCell>
        <mxCell id="JbF6_Ax5CL-Pjxw5ouyr-3" value="PK" style="shape=partialRectangle;connectable=0;fillColor=none;top=0;left=0;bottom=0;right=0;fontStyle=1;overflow=hidden;" vertex="1" parent="JbF6_Ax5CL-Pjxw5ouyr-2">
          <mxGeometry width="30" height="30" as="geometry" />
        </mxCell>
        <mxCell id="JbF6_Ax5CL-Pjxw5ouyr-4" value="UniqueID" style="shape=partialRectangle;connectable=0;fillColor=none;top=0;left=0;bottom=0;right=0;align=left;spacingLeft=6;fontStyle=5;overflow=hidden;" vertex="1" parent="JbF6_Ax5CL-Pjxw5ouyr-2">
          <mxGeometry x="30" width="150" height="30" as="geometry" />
        </mxCell>
        <mxCell id="JbF6_Ax5CL-Pjxw5ouyr-5" value="" style="shape=partialRectangle;collapsible=0;dropTarget=0;pointerEvents=0;fillColor=none;top=0;left=0;bottom=0;right=0;points=[[0,0.5],[1,0.5]];portConstraint=eastwest;" vertex="1" parent="JbF6_Ax5CL-Pjxw5ouyr-1">
          <mxGeometry y="60" width="180" height="30" as="geometry" />
        </mxCell>
        <mxCell id="JbF6_Ax5CL-Pjxw5ouyr-6" value="" style="shape=partialRectangle;connectable=0;fillColor=none;top=0;left=0;bottom=0;right=0;editable=1;overflow=hidden;" vertex="1" parent="JbF6_Ax5CL-Pjxw5ouyr-5">
          <mxGeometry width="30" height="30" as="geometry" />
        </mxCell>
        <mxCell id="JbF6_Ax5CL-Pjxw5ouyr-7" value="Name" style="shape=partialRectangle;connectable=0;fillColor=none;top=0;left=0;bottom=0;right=0;align=left;spacingLeft=6;overflow=hidden;" vertex="1" parent="JbF6_Ax5CL-Pjxw5ouyr-5">
          <mxGeometry x="30" width="150" height="30" as="geometry" />
        </mxCell>
        <mxCell id="JbF6_Ax5CL-Pjxw5ouyr-8" value="" style="shape=partialRectangle;collapsible=0;dropTarget=0;pointerEvents=0;fillColor=none;top=0;left=0;bottom=0;right=0;points=[[0,0.5],[1,0.5]];portConstraint=eastwest;" vertex="1" parent="JbF6_Ax5CL-Pjxw5ouyr-1">
          <mxGeometry y="90" width="180" height="30" as="geometry" />
        </mxCell>
        <mxCell id="JbF6_Ax5CL-Pjxw5ouyr-9" value="" style="shape=partialRectangle;connectable=0;fillColor=none;top=0;left=0;bottom=0;right=0;editable=1;overflow=hidden;" vertex="1" parent="JbF6_Ax5CL-Pjxw5ouyr-8">
          <mxGeometry width="30" height="30" as="geometry" />
        </mxCell>
        <mxCell id="JbF6_Ax5CL-Pjxw5ouyr-10" value="Author" style="shape=partialRectangle;connectable=0;fillColor=none;top=0;left=0;bottom=0;right=0;align=left;spacingLeft=6;overflow=hidden;" vertex="1" parent="JbF6_Ax5CL-Pjxw5ouyr-8">
          <mxGeometry x="30" width="150" height="30" as="geometry" />
        </mxCell>
        <mxCell id="JbF6_Ax5CL-Pjxw5ouyr-11" value="" style="shape=partialRectangle;collapsible=0;dropTarget=0;pointerEvents=0;fillColor=none;top=0;left=0;bottom=0;right=0;points=[[0,0.5],[1,0.5]];portConstraint=eastwest;" vertex="1" parent="JbF6_Ax5CL-Pjxw5ouyr-1">
          <mxGeometry y="120" width="180" height="30" as="geometry" />
        </mxCell>
        <mxCell id="JbF6_Ax5CL-Pjxw5ouyr-12" value="" style="shape=partialRectangle;connectable=0;fillColor=none;top=0;left=0;bottom=0;right=0;editable=1;overflow=hidden;" vertex="1" parent="JbF6_Ax5CL-Pjxw5ouyr-11">
          <mxGeometry width="30" height="30" as="geometry" />
        </mxCell>
        <mxCell id="JbF6_Ax5CL-Pjxw5ouyr-13" value="PublishYear" style="shape=partialRectangle;connectable=0;fillColor=none;top=0;left=0;bottom=0;right=0;align=left;spacingLeft=6;overflow=hidden;" vertex="1" parent="JbF6_Ax5CL-Pjxw5ouyr-11">
          <mxGeometry x="30" width="150" height="30" as="geometry" />
        </mxCell>
        <mxCell id="JbF6_Ax5CL-Pjxw5ouyr-40" value="Categories" style="shape=table;startSize=30;container=1;collapsible=1;childLayout=tableLayout;fixedRows=1;rowLines=0;fontStyle=1;align=center;resizeLast=1;" vertex="1" parent="1">
          <mxGeometry x="100" y="30" width="180" height="130" as="geometry" />
        </mxCell>
        <mxCell id="JbF6_Ax5CL-Pjxw5ouyr-41" value="" style="shape=partialRectangle;collapsible=0;dropTarget=0;pointerEvents=0;fillColor=none;top=0;left=0;bottom=1;right=0;points=[[0,0.5],[1,0.5]];portConstraint=eastwest;" vertex="1" parent="JbF6_Ax5CL-Pjxw5ouyr-40">
          <mxGeometry y="30" width="180" height="30" as="geometry" />
        </mxCell>
        <mxCell id="JbF6_Ax5CL-Pjxw5ouyr-42" value="PK" style="shape=partialRectangle;connectable=0;fillColor=none;top=0;left=0;bottom=0;right=0;fontStyle=1;overflow=hidden;" vertex="1" parent="JbF6_Ax5CL-Pjxw5ouyr-41">
          <mxGeometry width="30" height="30" as="geometry" />
        </mxCell>
        <mxCell id="JbF6_Ax5CL-Pjxw5ouyr-43" value="UniqueID" style="shape=partialRectangle;connectable=0;fillColor=none;top=0;left=0;bottom=0;right=0;align=left;spacingLeft=6;fontStyle=5;overflow=hidden;" vertex="1" parent="JbF6_Ax5CL-Pjxw5ouyr-41">
          <mxGeometry x="30" width="150" height="30" as="geometry" />
        </mxCell>
        <mxCell id="JbF6_Ax5CL-Pjxw5ouyr-44" value="" style="shape=partialRectangle;collapsible=0;dropTarget=0;pointerEvents=0;fillColor=none;top=0;left=0;bottom=0;right=0;points=[[0,0.5],[1,0.5]];portConstraint=eastwest;" vertex="1" parent="JbF6_Ax5CL-Pjxw5ouyr-40">
          <mxGeometry y="60" width="180" height="30" as="geometry" />
        </mxCell>
        <mxCell id="JbF6_Ax5CL-Pjxw5ouyr-45" value="" style="shape=partialRectangle;connectable=0;fillColor=none;top=0;left=0;bottom=0;right=0;editable=1;overflow=hidden;" vertex="1" parent="JbF6_Ax5CL-Pjxw5ouyr-44">
          <mxGeometry width="30" height="30" as="geometry" />
        </mxCell>
        <mxCell id="JbF6_Ax5CL-Pjxw5ouyr-46" value="categoryName" style="shape=partialRectangle;connectable=0;fillColor=none;top=0;left=0;bottom=0;right=0;align=left;spacingLeft=6;overflow=hidden;labelBackgroundColor=#ffffff;" vertex="1" parent="JbF6_Ax5CL-Pjxw5ouyr-44">
          <mxGeometry x="30" width="150" height="30" as="geometry" />
        </mxCell>
        <mxCell id="JbF6_Ax5CL-Pjxw5ouyr-47" value="" style="shape=partialRectangle;collapsible=0;dropTarget=0;pointerEvents=0;fillColor=none;top=0;left=0;bottom=0;right=0;points=[[0,0.5],[1,0.5]];portConstraint=eastwest;" vertex="1" parent="JbF6_Ax5CL-Pjxw5ouyr-40">
          <mxGeometry y="90" width="180" height="30" as="geometry" />
        </mxCell>
        <mxCell id="JbF6_Ax5CL-Pjxw5ouyr-48" value="" style="shape=partialRectangle;connectable=0;fillColor=none;top=0;left=0;bottom=0;right=0;editable=1;overflow=hidden;" vertex="1" parent="JbF6_Ax5CL-Pjxw5ouyr-47">
          <mxGeometry width="30" height="30" as="geometry" />
        </mxCell>
        <mxCell id="JbF6_Ax5CL-Pjxw5ouyr-49" value="" style="shape=partialRectangle;connectable=0;fillColor=none;top=0;left=0;bottom=0;right=0;align=left;spacingLeft=6;overflow=hidden;" vertex="1" parent="JbF6_Ax5CL-Pjxw5ouyr-47">
          <mxGeometry x="30" width="150" height="30" as="geometry" />
        </mxCell>
        <mxCell id="JbF6_Ax5CL-Pjxw5ouyr-55" value="book_category" style="shape=table;startSize=30;container=1;collapsible=1;childLayout=tableLayout;fixedRows=1;rowLines=0;fontStyle=1;align=center;resizeLast=1;labelBackgroundColor=#ffffff;" vertex="1" parent="1">
          <mxGeometry x="150" y="280" width="180" height="130" as="geometry" />
        </mxCell>
        <mxCell id="JbF6_Ax5CL-Pjxw5ouyr-56" value="" style="shape=partialRectangle;collapsible=0;dropTarget=0;pointerEvents=0;fillColor=none;top=0;left=0;bottom=1;right=0;points=[[0,0.5],[1,0.5]];portConstraint=eastwest;" vertex="1" parent="JbF6_Ax5CL-Pjxw5ouyr-55">
          <mxGeometry y="30" width="180" height="30" as="geometry" />
        </mxCell>
        <mxCell id="JbF6_Ax5CL-Pjxw5ouyr-57" value="PK" style="shape=partialRectangle;connectable=0;fillColor=none;top=0;left=0;bottom=0;right=0;fontStyle=1;overflow=hidden;" vertex="1" parent="JbF6_Ax5CL-Pjxw5ouyr-56">
          <mxGeometry width="30" height="30" as="geometry" />
        </mxCell>
        <mxCell id="JbF6_Ax5CL-Pjxw5ouyr-58" value="bookId, categoryId" style="shape=partialRectangle;connectable=0;fillColor=none;top=0;left=0;bottom=0;right=0;align=left;spacingLeft=6;fontStyle=5;overflow=hidden;" vertex="1" parent="JbF6_Ax5CL-Pjxw5ouyr-56">
          <mxGeometry x="30" width="150" height="30" as="geometry" />
        </mxCell>
        <mxCell id="JbF6_Ax5CL-Pjxw5ouyr-62" value="" style="shape=partialRectangle;collapsible=0;dropTarget=0;pointerEvents=0;fillColor=none;top=0;left=0;bottom=0;right=0;points=[[0,0.5],[1,0.5]];portConstraint=eastwest;" vertex="1" parent="JbF6_Ax5CL-Pjxw5ouyr-55">
          <mxGeometry y="60" width="180" height="30" as="geometry" />
        </mxCell>
        <mxCell id="JbF6_Ax5CL-Pjxw5ouyr-63" value="" style="shape=partialRectangle;connectable=0;fillColor=none;top=0;left=0;bottom=0;right=0;editable=1;overflow=hidden;" vertex="1" parent="JbF6_Ax5CL-Pjxw5ouyr-62">
          <mxGeometry width="30" height="30" as="geometry" />
        </mxCell>
        <mxCell id="JbF6_Ax5CL-Pjxw5ouyr-64" value="" style="shape=partialRectangle;connectable=0;fillColor=none;top=0;left=0;bottom=0;right=0;align=left;spacingLeft=6;overflow=hidden;" vertex="1" parent="JbF6_Ax5CL-Pjxw5ouyr-62">
          <mxGeometry x="30" width="150" height="30" as="geometry" />
        </mxCell>
        <mxCell id="JbF6_Ax5CL-Pjxw5ouyr-65" value="" style="shape=partialRectangle;collapsible=0;dropTarget=0;pointerEvents=0;fillColor=none;top=0;left=0;bottom=0;right=0;points=[[0,0.5],[1,0.5]];portConstraint=eastwest;" vertex="1" parent="JbF6_Ax5CL-Pjxw5ouyr-55">
          <mxGeometry y="90" width="180" height="30" as="geometry" />
        </mxCell>
        <mxCell id="JbF6_Ax5CL-Pjxw5ouyr-66" value="" style="shape=partialRectangle;connectable=0;fillColor=none;top=0;left=0;bottom=0;right=0;editable=1;overflow=hidden;" vertex="1" parent="JbF6_Ax5CL-Pjxw5ouyr-65">
          <mxGeometry width="30" height="30" as="geometry" />
        </mxCell>
        <mxCell id="JbF6_Ax5CL-Pjxw5ouyr-67" value="" style="shape=partialRectangle;connectable=0;fillColor=none;top=0;left=0;bottom=0;right=0;align=left;spacingLeft=6;overflow=hidden;" vertex="1" parent="JbF6_Ax5CL-Pjxw5ouyr-65">
          <mxGeometry x="30" width="150" height="30" as="geometry" />
        </mxCell>
        <mxCell id="JbF6_Ax5CL-Pjxw5ouyr-69" value="" style="edgeStyle=entityRelationEdgeStyle;fontSize=12;html=1;endArrow=ERoneToMany;entryX=0.561;entryY=0.015;entryDx=0;entryDy=0;entryPerimeter=0;" edge="1" parent="1" target="JbF6_Ax5CL-Pjxw5ouyr-55">
          <mxGeometry width="100" height="100" relative="1" as="geometry">
            <mxPoint x="280" y="110" as="sourcePoint" />
            <mxPoint x="380" y="10" as="targetPoint" />
          </mxGeometry>
        </mxCell>
        <mxCell id="JbF6_Ax5CL-Pjxw5ouyr-70" value="" style="edgeStyle=entityRelationEdgeStyle;fontSize=12;html=1;endArrow=ERoneToMany;entryX=1.022;entryY=0.033;entryDx=0;entryDy=0;entryPerimeter=0;exitX=0;exitY=0.5;exitDx=0;exitDy=0;" edge="1" parent="1" source="JbF6_Ax5CL-Pjxw5ouyr-5" target="JbF6_Ax5CL-Pjxw5ouyr-65">
          <mxGeometry width="100" height="100" relative="1" as="geometry">
            <mxPoint x="370" y="280" as="sourcePoint" />
            <mxPoint x="470" y="180" as="targetPoint" />
          </mxGeometry>
        </mxCell>
        <mxCell id="JbF6_Ax5CL-Pjxw5ouyr-71" value="Users" style="shape=table;startSize=30;container=1;collapsible=1;childLayout=tableLayout;fixedRows=1;rowLines=0;fontStyle=1;align=center;resizeLast=1;labelBackgroundColor=#ffffff;" vertex="1" parent="1">
          <mxGeometry x="420" y="30" width="180" height="160" as="geometry" />
        </mxCell>
        <mxCell id="JbF6_Ax5CL-Pjxw5ouyr-72" value="" style="shape=partialRectangle;collapsible=0;dropTarget=0;pointerEvents=0;fillColor=none;top=0;left=0;bottom=1;right=0;points=[[0,0.5],[1,0.5]];portConstraint=eastwest;" vertex="1" parent="JbF6_Ax5CL-Pjxw5ouyr-71">
          <mxGeometry y="30" width="180" height="30" as="geometry" />
        </mxCell>
        <mxCell id="JbF6_Ax5CL-Pjxw5ouyr-73" value="PK" style="shape=partialRectangle;connectable=0;fillColor=none;top=0;left=0;bottom=0;right=0;fontStyle=1;overflow=hidden;" vertex="1" parent="JbF6_Ax5CL-Pjxw5ouyr-72">
          <mxGeometry width="30" height="30" as="geometry" />
        </mxCell>
        <mxCell id="JbF6_Ax5CL-Pjxw5ouyr-74" value="UniqueID" style="shape=partialRectangle;connectable=0;fillColor=none;top=0;left=0;bottom=0;right=0;align=left;spacingLeft=6;fontStyle=5;overflow=hidden;" vertex="1" parent="JbF6_Ax5CL-Pjxw5ouyr-72">
          <mxGeometry x="30" width="150" height="30" as="geometry" />
        </mxCell>
        <mxCell id="JbF6_Ax5CL-Pjxw5ouyr-75" value="" style="shape=partialRectangle;collapsible=0;dropTarget=0;pointerEvents=0;fillColor=none;top=0;left=0;bottom=0;right=0;points=[[0,0.5],[1,0.5]];portConstraint=eastwest;" vertex="1" parent="JbF6_Ax5CL-Pjxw5ouyr-71">
          <mxGeometry y="60" width="180" height="30" as="geometry" />
        </mxCell>
        <mxCell id="JbF6_Ax5CL-Pjxw5ouyr-76" value="" style="shape=partialRectangle;connectable=0;fillColor=none;top=0;left=0;bottom=0;right=0;editable=1;overflow=hidden;" vertex="1" parent="JbF6_Ax5CL-Pjxw5ouyr-75">
          <mxGeometry width="30" height="30" as="geometry" />
        </mxCell>
        <mxCell id="JbF6_Ax5CL-Pjxw5ouyr-77" value="name" style="shape=partialRectangle;connectable=0;fillColor=none;top=0;left=0;bottom=0;right=0;align=left;spacingLeft=6;overflow=hidden;" vertex="1" parent="JbF6_Ax5CL-Pjxw5ouyr-75">
          <mxGeometry x="30" width="150" height="30" as="geometry" />
        </mxCell>
        <mxCell id="JbF6_Ax5CL-Pjxw5ouyr-78" value="" style="shape=partialRectangle;collapsible=0;dropTarget=0;pointerEvents=0;fillColor=none;top=0;left=0;bottom=0;right=0;points=[[0,0.5],[1,0.5]];portConstraint=eastwest;" vertex="1" parent="JbF6_Ax5CL-Pjxw5ouyr-71">
          <mxGeometry y="90" width="180" height="30" as="geometry" />
        </mxCell>
        <mxCell id="JbF6_Ax5CL-Pjxw5ouyr-79" value="" style="shape=partialRectangle;connectable=0;fillColor=none;top=0;left=0;bottom=0;right=0;editable=1;overflow=hidden;" vertex="1" parent="JbF6_Ax5CL-Pjxw5ouyr-78">
          <mxGeometry width="30" height="30" as="geometry" />
        </mxCell>
        <mxCell id="JbF6_Ax5CL-Pjxw5ouyr-80" value="birthday" style="shape=partialRectangle;connectable=0;fillColor=none;top=0;left=0;bottom=0;right=0;align=left;spacingLeft=6;overflow=hidden;" vertex="1" parent="JbF6_Ax5CL-Pjxw5ouyr-78">
          <mxGeometry x="30" width="150" height="30" as="geometry" />
        </mxCell>
        <mxCell id="JbF6_Ax5CL-Pjxw5ouyr-81" value="" style="shape=partialRectangle;collapsible=0;dropTarget=0;pointerEvents=0;fillColor=none;top=0;left=0;bottom=0;right=0;points=[[0,0.5],[1,0.5]];portConstraint=eastwest;" vertex="1" parent="JbF6_Ax5CL-Pjxw5ouyr-71">
          <mxGeometry y="120" width="180" height="30" as="geometry" />
        </mxCell>
        <mxCell id="JbF6_Ax5CL-Pjxw5ouyr-82" value="" style="shape=partialRectangle;connectable=0;fillColor=none;top=0;left=0;bottom=0;right=0;editable=1;overflow=hidden;" vertex="1" parent="JbF6_Ax5CL-Pjxw5ouyr-81">
          <mxGeometry width="30" height="30" as="geometry" />
        </mxCell>
        <mxCell id="JbF6_Ax5CL-Pjxw5ouyr-83" value="authentication" style="shape=partialRectangle;connectable=0;fillColor=none;top=0;left=0;bottom=0;right=0;align=left;spacingLeft=6;overflow=hidden;" vertex="1" parent="JbF6_Ax5CL-Pjxw5ouyr-81">
          <mxGeometry x="30" width="150" height="30" as="geometry" />
        </mxCell>
        <mxCell id="JbF6_Ax5CL-Pjxw5ouyr-84" value="" style="edgeStyle=entityRelationEdgeStyle;fontSize=12;html=1;endArrow=ERoneToMany;entryX=0.998;entryY=-0.045;entryDx=0;entryDy=0;entryPerimeter=0;" edge="1" parent="1" target="JbF6_Ax5CL-Pjxw5ouyr-8">
          <mxGeometry width="100" height="100" relative="1" as="geometry">
            <mxPoint x="750" y="280" as="sourcePoint" />
            <mxPoint x="580" y="170" as="targetPoint" />
          </mxGeometry>
        </mxCell>
        <mxCell id="JbF6_Ax5CL-Pjxw5ouyr-85" value="Activities" style="shape=table;startSize=30;container=1;collapsible=1;childLayout=tableLayout;fixedRows=1;rowLines=0;fontStyle=1;align=center;resizeLast=1;labelBackgroundColor=#ffffff;" vertex="1" parent="1">
          <mxGeometry x="670" y="120" width="180" height="160" as="geometry" />
        </mxCell>
        <mxCell id="JbF6_Ax5CL-Pjxw5ouyr-86" value="" style="shape=partialRectangle;collapsible=0;dropTarget=0;pointerEvents=0;fillColor=none;top=0;left=0;bottom=1;right=0;points=[[0,0.5],[1,0.5]];portConstraint=eastwest;" vertex="1" parent="JbF6_Ax5CL-Pjxw5ouyr-85">
          <mxGeometry y="30" width="180" height="30" as="geometry" />
        </mxCell>
        <mxCell id="JbF6_Ax5CL-Pjxw5ouyr-87" value="PK" style="shape=partialRectangle;connectable=0;fillColor=none;top=0;left=0;bottom=0;right=0;fontStyle=1;overflow=hidden;" vertex="1" parent="JbF6_Ax5CL-Pjxw5ouyr-86">
          <mxGeometry width="30" height="30" as="geometry" />
        </mxCell>
        <mxCell id="JbF6_Ax5CL-Pjxw5ouyr-88" value="UniqueID" style="shape=partialRectangle;connectable=0;fillColor=none;top=0;left=0;bottom=0;right=0;align=left;spacingLeft=6;fontStyle=5;overflow=hidden;" vertex="1" parent="JbF6_Ax5CL-Pjxw5ouyr-86">
          <mxGeometry x="30" width="150" height="30" as="geometry" />
        </mxCell>
        <mxCell id="JbF6_Ax5CL-Pjxw5ouyr-89" value="" style="shape=partialRectangle;collapsible=0;dropTarget=0;pointerEvents=0;fillColor=none;top=0;left=0;bottom=0;right=0;points=[[0,0.5],[1,0.5]];portConstraint=eastwest;" vertex="1" parent="JbF6_Ax5CL-Pjxw5ouyr-85">
          <mxGeometry y="60" width="180" height="30" as="geometry" />
        </mxCell>
        <mxCell id="JbF6_Ax5CL-Pjxw5ouyr-90" value="" style="shape=partialRectangle;connectable=0;fillColor=none;top=0;left=0;bottom=0;right=0;editable=1;overflow=hidden;" vertex="1" parent="JbF6_Ax5CL-Pjxw5ouyr-89">
          <mxGeometry width="30" height="30" as="geometry" />
        </mxCell>
        <mxCell id="JbF6_Ax5CL-Pjxw5ouyr-91" value="userId" style="shape=partialRectangle;connectable=0;fillColor=none;top=0;left=0;bottom=0;right=0;align=left;spacingLeft=6;overflow=hidden;" vertex="1" parent="JbF6_Ax5CL-Pjxw5ouyr-89">
          <mxGeometry x="30" width="150" height="30" as="geometry" />
        </mxCell>
        <mxCell id="JbF6_Ax5CL-Pjxw5ouyr-92" value="" style="shape=partialRectangle;collapsible=0;dropTarget=0;pointerEvents=0;fillColor=none;top=0;left=0;bottom=0;right=0;points=[[0,0.5],[1,0.5]];portConstraint=eastwest;" vertex="1" parent="JbF6_Ax5CL-Pjxw5ouyr-85">
          <mxGeometry y="90" width="180" height="30" as="geometry" />
        </mxCell>
        <mxCell id="JbF6_Ax5CL-Pjxw5ouyr-93" value="" style="shape=partialRectangle;connectable=0;fillColor=none;top=0;left=0;bottom=0;right=0;editable=1;overflow=hidden;" vertex="1" parent="JbF6_Ax5CL-Pjxw5ouyr-92">
          <mxGeometry width="30" height="30" as="geometry" />
        </mxCell>
        <mxCell id="JbF6_Ax5CL-Pjxw5ouyr-94" value="bookIds" style="shape=partialRectangle;connectable=0;fillColor=none;top=0;left=0;bottom=0;right=0;align=left;spacingLeft=6;overflow=hidden;" vertex="1" parent="JbF6_Ax5CL-Pjxw5ouyr-92">
          <mxGeometry x="30" width="150" height="30" as="geometry" />
        </mxCell>
        <mxCell id="JbF6_Ax5CL-Pjxw5ouyr-95" value="" style="shape=partialRectangle;collapsible=0;dropTarget=0;pointerEvents=0;fillColor=none;top=0;left=0;bottom=0;right=0;points=[[0,0.5],[1,0.5]];portConstraint=eastwest;" vertex="1" parent="JbF6_Ax5CL-Pjxw5ouyr-85">
          <mxGeometry y="120" width="180" height="30" as="geometry" />
        </mxCell>
        <mxCell id="JbF6_Ax5CL-Pjxw5ouyr-96" value="" style="shape=partialRectangle;connectable=0;fillColor=none;top=0;left=0;bottom=0;right=0;editable=1;overflow=hidden;" vertex="1" parent="JbF6_Ax5CL-Pjxw5ouyr-95">
          <mxGeometry width="30" height="30" as="geometry" />
        </mxCell>
        <mxCell id="JbF6_Ax5CL-Pjxw5ouyr-97" value="borrowDate" style="shape=partialRectangle;connectable=0;fillColor=none;top=0;left=0;bottom=0;right=0;align=left;spacingLeft=6;overflow=hidden;" vertex="1" parent="JbF6_Ax5CL-Pjxw5ouyr-95">
          <mxGeometry x="30" width="150" height="30" as="geometry" />
        </mxCell>
        <mxCell id="JbF6_Ax5CL-Pjxw5ouyr-98" value="" style="edgeStyle=entityRelationEdgeStyle;fontSize=12;html=1;endArrow=ERoneToMany;exitX=1.027;exitY=0.229;exitDx=0;exitDy=0;exitPerimeter=0;" edge="1" parent="1" source="JbF6_Ax5CL-Pjxw5ouyr-75">
          <mxGeometry width="100" height="100" relative="1" as="geometry">
            <mxPoint x="480" y="270" as="sourcePoint" />
            <mxPoint x="660" y="210" as="targetPoint" />
          </mxGeometry>
        </mxCell>
        <mxCell id="JbF6_Ax5CL-Pjxw5ouyr-100" value="Status" style="shape=partialRectangle;connectable=0;fillColor=none;top=0;left=0;bottom=0;right=0;align=left;spacingLeft=6;overflow=hidden;" vertex="1" parent="1">
          <mxGeometry x="420" y="460" width="150" height="30" as="geometry" />
        </mxCell>
      </root>
    </mxGraphModel>
  </diagram>
  <diagram id="mf0CFk0yO-qZpJa9V-49" name="Page-2">
    <mxGraphModel dx="2568" dy="1550" grid="1" gridSize="10" guides="1" tooltips="1" connect="1" arrows="1" fold="1" page="1" pageScale="1" pageWidth="850" pageHeight="1100" math="0" shadow="0">
      <root>
        <mxCell id="Qn1dWMHvTGgGIkjTA7Ld-0" />
        <mxCell id="Qn1dWMHvTGgGIkjTA7Ld-1" parent="Qn1dWMHvTGgGIkjTA7Ld-0" />
        <mxCell id="UxoUxV6QnCbCpjQDPkDv-0" value="" style="whiteSpace=wrap;html=1;aspect=fixed;labelBackgroundColor=#ffffff;" vertex="1" parent="Qn1dWMHvTGgGIkjTA7Ld-1">
          <mxGeometry x="-730" y="-110" width="470" height="470" as="geometry" />
        </mxCell>
        <mxCell id="4NwIRJ1WfQuPfjfSQyYn-0" value="MySql" style="shape=cylinder3;whiteSpace=wrap;html=1;boundedLbl=1;backgroundOutline=1;size=15;labelBackgroundColor=#ffffff;" vertex="1" parent="Qn1dWMHvTGgGIkjTA7Ld-1">
          <mxGeometry x="-700" y="160" width="60" height="80" as="geometry" />
        </mxCell>
        <mxCell id="bPQqXdky20fP5SlN9ouJ-0" value="" style="swimlane;startSize=0;labelBackgroundColor=#ffffff;" vertex="1" parent="Qn1dWMHvTGgGIkjTA7Ld-1">
          <mxGeometry x="-425" y="50" width="150" height="100" as="geometry" />
        </mxCell>
        <mxCell id="bPQqXdky20fP5SlN9ouJ-3" value="Authentication module&lt;br&gt;Keycloak" style="text;html=1;align=center;verticalAlign=middle;resizable=0;points=[];autosize=1;strokeColor=none;" vertex="1" parent="Qn1dWMHvTGgGIkjTA7Ld-1">
          <mxGeometry x="-415" y="85" width="130" height="30" as="geometry" />
        </mxCell>
        <mxCell id="bPQqXdky20fP5SlN9ouJ-4" value="" style="endArrow=none;html=1;" edge="1" parent="Qn1dWMHvTGgGIkjTA7Ld-1">
          <mxGeometry width="50" height="50" relative="1" as="geometry">
            <mxPoint x="-120" y="494" as="sourcePoint" />
            <mxPoint x="-120" y="50" as="targetPoint" />
          </mxGeometry>
        </mxCell>
        <mxCell id="bPQqXdky20fP5SlN9ouJ-5" value="User" style="shape=umlActor;verticalLabelPosition=bottom;verticalAlign=top;html=1;outlineConnect=0;labelBackgroundColor=#ffffff;" vertex="1" parent="Qn1dWMHvTGgGIkjTA7Ld-1">
          <mxGeometry x="-100" y="150" width="30" height="60" as="geometry" />
        </mxCell>
        <mxCell id="bPQqXdky20fP5SlN9ouJ-6" value="UserManagement" style="whiteSpace=wrap;html=1;aspect=fixed;labelBackgroundColor=#ffffff;" vertex="1" parent="Qn1dWMHvTGgGIkjTA7Ld-1">
          <mxGeometry x="-580" y="35" width="80" height="80" as="geometry" />
        </mxCell>
        <mxCell id="bPQqXdky20fP5SlN9ouJ-7" value="BookManagement" style="whiteSpace=wrap;html=1;aspect=fixed;labelBackgroundColor=#ffffff;" vertex="1" parent="Qn1dWMHvTGgGIkjTA7Ld-1">
          <mxGeometry x="-580" y="160" width="80" height="80" as="geometry" />
        </mxCell>
        <mxCell id="bPQqXdky20fP5SlN9ouJ-9" value="MySql" style="shape=cylinder3;whiteSpace=wrap;html=1;boundedLbl=1;backgroundOutline=1;size=15;labelBackgroundColor=#ffffff;" vertex="1" parent="Qn1dWMHvTGgGIkjTA7Ld-1">
          <mxGeometry x="-710" y="35" width="60" height="80" as="geometry" />
        </mxCell>
        <mxCell id="UxoUxV6QnCbCpjQDPkDv-1" value="Kubernetes Cluster" style="text;html=1;strokeColor=none;fillColor=none;align=center;verticalAlign=middle;whiteSpace=wrap;rounded=0;labelBackgroundColor=#ffffff;" vertex="1" parent="Qn1dWMHvTGgGIkjTA7Ld-1">
          <mxGeometry x="-540" y="-70" width="40" height="20" as="geometry" />
        </mxCell>
        <mxCell id="UxoUxV6QnCbCpjQDPkDv-2" value="Ingress&lt;br&gt;Nginx" style="rounded=0;whiteSpace=wrap;html=1;labelBackgroundColor=#ffffff;" vertex="1" parent="Qn1dWMHvTGgGIkjTA7Ld-1">
          <mxGeometry x="-300" y="160" width="120" height="60" as="geometry" />
        </mxCell>
        <mxCell id="UxoUxV6QnCbCpjQDPkDv-3" value="" style="endArrow=classic;html=1;entryX=1;entryY=0.5;entryDx=0;entryDy=0;" edge="1" parent="Qn1dWMHvTGgGIkjTA7Ld-1" source="bPQqXdky20fP5SlN9ouJ-5" target="UxoUxV6QnCbCpjQDPkDv-2">
          <mxGeometry width="50" height="50" relative="1" as="geometry">
            <mxPoint x="-490" y="220" as="sourcePoint" />
            <mxPoint x="-440" y="170" as="targetPoint" />
          </mxGeometry>
        </mxCell>
        <mxCell id="UxoUxV6QnCbCpjQDPkDv-4" value="" style="endArrow=classic;html=1;entryX=0.538;entryY=1.033;entryDx=0;entryDy=0;entryPerimeter=0;" edge="1" parent="Qn1dWMHvTGgGIkjTA7Ld-1" source="UxoUxV6QnCbCpjQDPkDv-2" target="bPQqXdky20fP5SlN9ouJ-3">
          <mxGeometry width="50" height="50" relative="1" as="geometry">
            <mxPoint x="-490" y="220" as="sourcePoint" />
            <mxPoint x="-440" y="170" as="targetPoint" />
          </mxGeometry>
        </mxCell>
        <mxCell id="UxoUxV6QnCbCpjQDPkDv-7" value="Token" style="text;html=1;strokeColor=none;fillColor=none;align=center;verticalAlign=middle;whiteSpace=wrap;rounded=0;labelBackgroundColor=#ffffff;" vertex="1" parent="Qn1dWMHvTGgGIkjTA7Ld-1">
          <mxGeometry x="-120" y="250" width="40" height="20" as="geometry" />
        </mxCell>
        <mxCell id="UxoUxV6QnCbCpjQDPkDv-8" value="" style="endArrow=classic;html=1;entryX=1;entryY=0.5;entryDx=0;entryDy=0;" edge="1" parent="Qn1dWMHvTGgGIkjTA7Ld-1" source="UxoUxV6QnCbCpjQDPkDv-2" target="bPQqXdky20fP5SlN9ouJ-7">
          <mxGeometry width="50" height="50" relative="1" as="geometry">
            <mxPoint x="-490" y="160" as="sourcePoint" />
            <mxPoint x="-440" y="110" as="targetPoint" />
          </mxGeometry>
        </mxCell>
        <mxCell id="UxoUxV6QnCbCpjQDPkDv-9" value="" style="endArrow=classic;html=1;entryX=1.013;entryY=0.588;entryDx=0;entryDy=0;entryPerimeter=0;exitX=0;exitY=0.5;exitDx=0;exitDy=0;" edge="1" parent="Qn1dWMHvTGgGIkjTA7Ld-1" source="UxoUxV6QnCbCpjQDPkDv-2" target="bPQqXdky20fP5SlN9ouJ-6">
          <mxGeometry width="50" height="50" relative="1" as="geometry">
            <mxPoint x="-290" y="202.30769230769238" as="sourcePoint" />
            <mxPoint x="-490" y="210" as="targetPoint" />
          </mxGeometry>
        </mxCell>
        <mxCell id="UxoUxV6QnCbCpjQDPkDv-10" value="" style="endArrow=classic;html=1;exitX=0;exitY=0.75;exitDx=0;exitDy=0;" edge="1" parent="Qn1dWMHvTGgGIkjTA7Ld-1" source="bPQqXdky20fP5SlN9ouJ-6" target="bPQqXdky20fP5SlN9ouJ-9">
          <mxGeometry width="50" height="50" relative="1" as="geometry">
            <mxPoint x="-490" y="160" as="sourcePoint" />
            <mxPoint x="-440" y="110" as="targetPoint" />
          </mxGeometry>
        </mxCell>
        <mxCell id="UxoUxV6QnCbCpjQDPkDv-11" value="" style="endArrow=classic;html=1;exitX=0;exitY=0.75;exitDx=0;exitDy=0;" edge="1" parent="Qn1dWMHvTGgGIkjTA7Ld-1">
          <mxGeometry width="50" height="50" relative="1" as="geometry">
            <mxPoint x="-580" y="210" as="sourcePoint" />
            <mxPoint x="-650" y="196" as="targetPoint" />
          </mxGeometry>
        </mxCell>
        <mxCell id="UxoUxV6QnCbCpjQDPkDv-12" value="" style="whiteSpace=wrap;html=1;aspect=fixed;labelBackgroundColor=#ffffff;" vertex="1" parent="Qn1dWMHvTGgGIkjTA7Ld-1">
          <mxGeometry x="-1090" y="-20" width="270" height="270" as="geometry" />
        </mxCell>
        <mxCell id="UxoUxV6QnCbCpjQDPkDv-13" value="" style="shape=cylinder3;whiteSpace=wrap;html=1;boundedLbl=1;backgroundOutline=1;size=15;labelBackgroundColor=#ffffff;" vertex="1" parent="Qn1dWMHvTGgGIkjTA7Ld-1">
          <mxGeometry x="-980" y="-10" width="60" height="80" as="geometry" />
        </mxCell>
        <mxCell id="UxoUxV6QnCbCpjQDPkDv-14" value="compute engine&lt;br&gt;" style="text;html=1;strokeColor=none;fillColor=none;align=center;verticalAlign=middle;whiteSpace=wrap;rounded=0;labelBackgroundColor=#ffffff;" vertex="1" parent="Qn1dWMHvTGgGIkjTA7Ld-1">
          <mxGeometry x="-980" y="-60" width="40" height="20" as="geometry" />
        </mxCell>
        <mxCell id="UxoUxV6QnCbCpjQDPkDv-17" value="" style="whiteSpace=wrap;html=1;aspect=fixed;labelBackgroundColor=#ffffff;" vertex="1" parent="Qn1dWMHvTGgGIkjTA7Ld-1">
          <mxGeometry x="-1150" y="360" width="380" height="380" as="geometry" />
        </mxCell>
        <mxCell id="UxoUxV6QnCbCpjQDPkDv-18" value="Google cloud storage" style="text;html=1;strokeColor=none;fillColor=none;align=center;verticalAlign=middle;whiteSpace=wrap;rounded=0;labelBackgroundColor=#ffffff;" vertex="1" parent="Qn1dWMHvTGgGIkjTA7Ld-1">
          <mxGeometry x="-970" y="340" width="40" height="20" as="geometry" />
        </mxCell>
        <mxCell id="UxoUxV6QnCbCpjQDPkDv-21" value="" style="endArrow=classic;startArrow=classic;html=1;" edge="1" parent="Qn1dWMHvTGgGIkjTA7Ld-1" target="4NwIRJ1WfQuPfjfSQyYn-0">
          <mxGeometry width="50" height="50" relative="1" as="geometry">
            <mxPoint x="-940" y="430" as="sourcePoint" />
            <mxPoint x="-890" y="380" as="targetPoint" />
          </mxGeometry>
        </mxCell>
        <mxCell id="UxoUxV6QnCbCpjQDPkDv-23" value="Volume" style="whiteSpace=wrap;html=1;aspect=fixed;labelBackgroundColor=#ffffff;" vertex="1" parent="Qn1dWMHvTGgGIkjTA7Ld-1">
          <mxGeometry x="-1010" y="430" width="80" height="80" as="geometry" />
        </mxCell>
        <mxCell id="UxoUxV6QnCbCpjQDPkDv-24" value="" style="whiteSpace=wrap;html=1;aspect=fixed;labelBackgroundColor=#ffffff;" vertex="1" parent="Qn1dWMHvTGgGIkjTA7Ld-1">
          <mxGeometry x="-1490" y="360" width="300" height="300" as="geometry" />
        </mxCell>
      </root>
    </mxGraphModel>
  </diagram>
</mxfile>
